<svg height="3854" width="720" xmlns="http://www.w3.org/2000/svg">
<rect height="3854" fill="#555" width="720"></rect>
<text fill="#7f7" font-family="Courier New" font-size="12" xml:space="preserve">
<tspan x="10" y="26">39 megabytes installed</tspan>
<tspan x="10" y="42"></tspan>
<tspan x="10" y="58">node_modules</tspan>
<tspan x="10" y="74">└─┬ telegram-bot-bootstrap@0.0.15 </tspan>
<tspan x="10" y="90">  ├─┬ body-parser@1.17.1 </tspan>
<tspan x="10" y="106">  │ ├── bytes@2.4.0 </tspan>
<tspan x="10" y="122">  │ ├── content-type@1.0.2 </tspan>
<tspan x="10" y="138">  │ ├─┬ debug@2.6.1 </tspan>
<tspan x="10" y="154">  │ │ └── ms@0.7.2 </tspan>
<tspan x="10" y="170">  │ ├── depd@1.1.0 </tspan>
<tspan x="10" y="186">  │ ├─┬ http-errors@1.6.1 </tspan>
<tspan x="10" y="202">  │ │ └── inherits@2.0.3 </tspan>
<tspan x="10" y="218">  │ ├── iconv-lite@0.4.15 </tspan>
<tspan x="10" y="234">  │ ├─┬ on-finished@2.3.0 </tspan>
<tspan x="10" y="250">  │ │ └── ee-first@1.1.1 </tspan>
<tspan x="10" y="266">  │ ├── qs@6.4.0 </tspan>
<tspan x="10" y="282">  │ ├─┬ raw-body@2.2.0 </tspan>
<tspan x="10" y="298">  │ │ └── unpipe@1.0.0 </tspan>
<tspan x="10" y="314">  │ └─┬ type-is@1.6.15 </tspan>
<tspan x="10" y="330">  │   └── media-typer@0.3.0 </tspan>
<tspan x="10" y="346">  ├── ejs@2.5.6 </tspan>
<tspan x="10" y="362">  ├─┬ express@4.15.2 </tspan>
<tspan x="10" y="378">  │ ├─┬ accepts@1.3.3 </tspan>
<tspan x="10" y="394">  │ │ └── negotiator@0.6.1 </tspan>
<tspan x="10" y="410">  │ ├── array-flatten@1.1.1 </tspan>
<tspan x="10" y="426">  │ ├── content-disposition@0.5.2 </tspan>
<tspan x="10" y="442">  │ ├── cookie@0.3.1 </tspan>
<tspan x="10" y="458">  │ ├── cookie-signature@1.0.6 </tspan>
<tspan x="10" y="474">  │ ├── encodeurl@1.0.1 </tspan>
<tspan x="10" y="490">  │ ├── escape-html@1.0.3 </tspan>
<tspan x="10" y="506">  │ ├── etag@1.8.0 </tspan>
<tspan x="10" y="522">  │ ├─┬ finalhandler@1.0.1 </tspan>
<tspan x="10" y="538">  │ │ └── debug@2.6.3 </tspan>
<tspan x="10" y="554">  │ ├── fresh@0.5.0 </tspan>
<tspan x="10" y="570">  │ ├── merge-descriptors@1.0.1 </tspan>
<tspan x="10" y="586">  │ ├── methods@1.1.2 </tspan>
<tspan x="10" y="602">  │ ├── parseurl@1.3.1 </tspan>
<tspan x="10" y="618">  │ ├── path-to-regexp@0.1.7 </tspan>
<tspan x="10" y="634">  │ ├─┬ proxy-addr@1.1.4 </tspan>
<tspan x="10" y="650">  │ │ ├── forwarded@0.1.0 </tspan>
<tspan x="10" y="666">  │ │ └── ipaddr.js@1.3.0 </tspan>
<tspan x="10" y="682">  │ ├── range-parser@1.2.0 </tspan>
<tspan x="10" y="698">  │ ├─┬ send@0.15.1 </tspan>
<tspan x="10" y="714">  │ │ ├── destroy@1.0.4 </tspan>
<tspan x="10" y="730">  │ │ └── mime@1.3.4 </tspan>
<tspan x="10" y="746">  │ ├── serve-static@1.12.1 </tspan>
<tspan x="10" y="762">  │ ├── setprototypeof@1.0.3 </tspan>
<tspan x="10" y="778">  │ ├── statuses@1.3.1 </tspan>
<tspan x="10" y="794">  │ ├── utils-merge@1.0.0 </tspan>
<tspan x="10" y="810">  │ └── vary@1.1.1 </tspan>
<tspan x="10" y="826">  ├─┬ lomath@0.1.8 </tspan>
<tspan x="10" y="842">  │ └── lodash@3.10.1 </tspan>
<tspan x="10" y="858">  ├─┬ morgan@1.8.1 </tspan>
<tspan x="10" y="874">  │ ├── basic-auth@1.1.0 </tspan>
<tspan x="10" y="890">  │ └── on-headers@1.0.1 </tspan>
<tspan x="10" y="906">  ├─┬ multer@0.1.8 </tspan>
<tspan x="10" y="922">  │ ├─┬ busboy@0.2.14 </tspan>
<tspan x="10" y="938">  │ │ ├─┬ dicer@0.2.5 </tspan>
<tspan x="10" y="954">  │ │ │ └── streamsearch@0.1.2 </tspan>
<tspan x="10" y="970">  │ │ └─┬ readable-stream@1.1.14 </tspan>
<tspan x="10" y="986">  │ │   ├── core-util-is@1.0.2 </tspan>
<tspan x="10" y="1002">  │ │   ├── isarray@0.0.1 </tspan>
<tspan x="10" y="1018">  │ │   └── string_decoder@0.10.31 </tspan>
<tspan x="10" y="1034">  │ ├── mkdirp@0.3.5 </tspan>
<tspan x="10" y="1050">  │ ├── qs@1.2.2 </tspan>
<tspan x="10" y="1066">  │ └─┬ type-is@1.5.7 </tspan>
<tspan x="10" y="1082">  │   └─┬ mime-types@2.0.14 </tspan>
<tspan x="10" y="1098">  │     └── mime-db@1.12.0 </tspan>
<tspan x="10" y="1114">  ├── q@1.5.0 </tspan>
<tspan x="10" y="1130">  ├─┬ reqscraper@0.0.2 </tspan>
<tspan x="10" y="1146">  │ ├─┬ x-ray@2.3.2 </tspan>
<tspan x="10" y="1162">  │ │ ├── batch@0.5.3 </tspan>
<tspan x="10" y="1178">  │ │ ├─┬ chalk@1.1.3 </tspan>
<tspan x="10" y="1194">  │ │ │ ├── ansi-styles@2.2.1 </tspan>
<tspan x="10" y="1210">  │ │ │ ├── escape-string-regexp@1.0.5 </tspan>
<tspan x="10" y="1226">  │ │ │ ├─┬ has-ansi@2.0.0 </tspan>
<tspan x="10" y="1242">  │ │ │ │ └── ansi-regex@2.1.1 </tspan>
<tspan x="10" y="1258">  │ │ │ ├── strip-ansi@3.0.1 </tspan>
<tspan x="10" y="1274">  │ │ │ └── supports-color@2.0.0 </tspan>
<tspan x="10" y="1290">  │ │ ├─┬ cheerio@0.20.0 </tspan>
<tspan x="10" y="1306">  │ │ │ ├─┬ css-select@1.2.0 </tspan>
<tspan x="10" y="1322">  │ │ │ │ ├── boolbase@1.0.0 </tspan>
<tspan x="10" y="1338">  │ │ │ │ ├── css-what@2.1.0 </tspan>
<tspan x="10" y="1354">  │ │ │ │ ├── domutils@1.5.1 </tspan>
<tspan x="10" y="1370">  │ │ │ │ └── nth-check@1.0.1 </tspan>
<tspan x="10" y="1386">  │ │ │ ├─┬ dom-serializer@0.1.0 </tspan>
<tspan x="10" y="1402">  │ │ │ │ └── domelementtype@1.1.3 </tspan>
<tspan x="10" y="1418">  │ │ │ ├── entities@1.1.1 </tspan>
<tspan x="10" y="1434">  │ │ │ ├─┬ htmlparser2@3.8.3 </tspan>
<tspan x="10" y="1450">  │ │ │ │ ├── domelementtype@1.3.0 </tspan>
<tspan x="10" y="1466">  │ │ │ │ ├── domhandler@2.3.0 </tspan>
<tspan x="10" y="1482">  │ │ │ │ └── entities@1.0.0 </tspan>
<tspan x="10" y="1498">  │ │ │ ├─┬ jsdom@7.2.2 </tspan>
<tspan x="10" y="1514">  │ │ │ │ ├── abab@1.0.3 </tspan>
<tspan x="10" y="1530">  │ │ │ │ ├── acorn@2.7.0 </tspan>
<tspan x="10" y="1546">  │ │ │ │ ├── acorn-globals@1.0.9 </tspan>
<tspan x="10" y="1562">  │ │ │ │ ├── cssom@0.3.2 </tspan>
<tspan x="10" y="1578">  │ │ │ │ ├── cssstyle@0.2.37 </tspan>
<tspan x="10" y="1594">  │ │ │ │ ├─┬ escodegen@1.8.1 </tspan>
<tspan x="10" y="1610">  │ │ │ │ │ ├── esprima@2.7.3 </tspan>
<tspan x="10" y="1626">  │ │ │ │ │ ├── estraverse@1.9.3 </tspan>
<tspan x="10" y="1642">  │ │ │ │ │ ├── esutils@2.0.2 </tspan>
<tspan x="10" y="1658">  │ │ │ │ │ ├─┬ optionator@0.8.2 </tspan>
<tspan x="10" y="1674">  │ │ │ │ │ │ ├── deep-is@0.1.3 </tspan>
<tspan x="10" y="1690">  │ │ │ │ │ │ ├── fast-levenshtein@2.0.6 </tspan>
<tspan x="10" y="1706">  │ │ │ │ │ │ ├── levn@0.3.0 </tspan>
<tspan x="10" y="1722">  │ │ │ │ │ │ ├── prelude-ls@1.1.2 </tspan>
<tspan x="10" y="1738">  │ │ │ │ │ │ ├── type-check@0.3.2 </tspan>
<tspan x="10" y="1754">  │ │ │ │ │ │ └── wordwrap@1.0.0 </tspan>
<tspan x="10" y="1770">  │ │ │ │ │ └─┬ source-map@0.2.0 </tspan>
<tspan x="10" y="1786">  │ │ │ │ │   └── amdefine@1.0.1 </tspan>
<tspan x="10" y="1802">  │ │ │ │ ├── nwmatcher@1.3.9 </tspan>
<tspan x="10" y="1818">  │ │ │ │ ├── parse5@1.5.1 </tspan>
<tspan x="10" y="1834">  │ │ │ │ ├── sax@1.2.2 </tspan>
<tspan x="10" y="1850">  │ │ │ │ ├── symbol-tree@3.2.2 </tspan>
<tspan x="10" y="1866">  │ │ │ │ ├── webidl-conversions@2.0.1 </tspan>
<tspan x="10" y="1882">  │ │ │ │ ├─┬ whatwg-url-compat@0.6.5 </tspan>
<tspan x="10" y="1898">  │ │ │ │ │ └── tr46@0.0.3 </tspan>
<tspan x="10" y="1914">  │ │ │ │ └── xml-name-validator@2.0.1 </tspan>
<tspan x="10" y="1930">  │ │ │ └── lodash@4.17.4 </tspan>
<tspan x="10" y="1946">  │ │ ├─┬ debug@2.2.0 </tspan>
<tspan x="10" y="1962">  │ │ │ └── ms@0.7.1 </tspan>
<tspan x="10" y="1978">  │ │ ├─┬ enstore@1.0.1 </tspan>
<tspan x="10" y="1994">  │ │ │ └── monotonic-timestamp@0.0.8 </tspan>
<tspan x="10" y="2010">  │ │ ├── is-url@1.2.2 </tspan>
<tspan x="10" y="2026">  │ │ ├── isobject@2.0.0 </tspan>
<tspan x="10" y="2042">  │ │ ├── object-assign@4.0.1 </tspan>
<tspan x="10" y="2058">  │ │ ├─┬ x-ray-crawler@2.0.2 </tspan>
<tspan x="10" y="2074">  │ │ │ ├─┬ cheerio@0.18.0 </tspan>
<tspan x="10" y="2090">  │ │ │ │ ├─┬ CSSselect@0.4.1 </tspan>
<tspan x="10" y="2106">  │ │ │ │ │ ├── CSSwhat@0.4.7 </tspan>
<tspan x="10" y="2122">  │ │ │ │ │ └── domutils@1.4.3 </tspan>
<tspan x="10" y="2138">  │ │ │ │ ├─┬ dom-serializer@0.0.1 </tspan>
<tspan x="10" y="2154">  │ │ │ │ │ └── domelementtype@1.1.3 </tspan>
<tspan x="10" y="2170">  │ │ │ │ └── lodash@2.4.2 </tspan>
<tspan x="10" y="2186">  │ │ │ ├── delegates@0.1.0 </tspan>
<tspan x="10" y="2202">  │ │ │ ├── emitter-component@1.1.1 </tspan>
<tspan x="10" y="2218">  │ │ │ ├── enqueue@1.0.2 </tspan>
<tspan x="10" y="2234">  │ │ │ ├─┬ http-context@1.1.1 </tspan>
<tspan x="10" y="2250">  │ │ │ │ ├─┬ assert@1.4.1 </tspan>
<tspan x="10" y="2266">  │ │ │ │ │ └─┬ util@0.10.3 </tspan>
<tspan x="10" y="2282">  │ │ │ │ │   └── inherits@2.0.1 </tspan>
<tspan x="10" y="2298">  │ │ │ │ ├── error-inject@1.0.0 </tspan>
<tspan x="10" y="2314">  │ │ │ │ ├── http-incoming@0.12.0 </tspan>
<tspan x="10" y="2330">  │ │ │ │ ├── http-outgoing@0.12.0 </tspan>
<tspan x="10" y="2346">  │ │ │ │ ├── koa-is-json@1.0.0 </tspan>
<tspan x="10" y="2362">  │ │ │ │ └── querystring@0.2.0 </tspan>
<tspan x="10" y="2378">  │ │ │ ├── selectn@0.9.6 </tspan>
<tspan x="10" y="2394">  │ │ │ ├── sliced@0.0.5 </tspan>
<tspan x="10" y="2410">  │ │ │ ├─┬ superagent@1.8.5 </tspan>
<tspan x="10" y="2426">  │ │ │ │ ├── component-emitter@1.2.1 </tspan>
<tspan x="10" y="2442">  │ │ │ │ ├── cookiejar@2.0.6 </tspan>
<tspan x="10" y="2458">  │ │ │ │ ├─┬ form-data@1.0.0-rc3 </tspan>
<tspan x="10" y="2474">  │ │ │ │ │ └── async@1.5.2 </tspan>
<tspan x="10" y="2490">  │ │ │ │ ├── formidable@1.0.17 </tspan>
<tspan x="10" y="2506">  │ │ │ │ ├── qs@2.3.3 </tspan>
<tspan x="10" y="2522">  │ │ │ │ ├── readable-stream@1.0.27-1 </tspan>
<tspan x="10" y="2538">  │ │ │ │ └── reduce-component@1.0.1 </tspan>
<tspan x="10" y="2554">  │ │ │ └─┬ yieldly@0.0.1 </tspan>
<tspan x="10" y="2570">  │ │ │   └── is-browser@2.0.1 </tspan>
<tspan x="10" y="2586">  │ │ └─┬ x-ray-parse@1.0.1 </tspan>
<tspan x="10" y="2602">  │ │   └── format-parser@0.0.2 </tspan>
<tspan x="10" y="2618">  │ └─┬ x-ray-phantom@1.0.1 </tspan>
<tspan x="10" y="2634">  │   ├─┬ nightmare@1.8.2 </tspan>
<tspan x="10" y="2650">  │   │ ├── clone@0.1.19 </tspan>
<tspan x="10" y="2666">  │   │ ├── debug@0.7.4 </tspan>
<tspan x="10" y="2682">  │   │ ├─┬ defaults@1.0.3 </tspan>
<tspan x="10" y="2698">  │   │ │ └── clone@1.0.2 </tspan>
<tspan x="10" y="2714">  │   │ ├── jsesc@0.5.0 </tspan>
<tspan x="10" y="2730">  │   │ ├── once@1.3.0 </tspan>
<tspan x="10" y="2746">  │   │ └─┬ phantom@0.7.2 </tspan>
<tspan x="10" y="2762">  │   │   ├─┬ dnode@1.2.2 </tspan>
<tspan x="10" y="2778">  │   │   │ ├── dnode-protocol@0.2.2 </tspan>
<tspan x="10" y="2794">  │   │   │ └─┬ weak@1.0.1 </tspan>
<tspan x="10" y="2810">  │   │   │   ├── bindings@1.2.1 </tspan>
<tspan x="10" y="2826">  │   │   │   └── nan@2.6.2 </tspan>
<tspan x="10" y="2842">  │   │   ├─┬ shoe@0.0.15 </tspan>
<tspan x="10" y="2858">  │   │   │ ├─┬ sockjs@0.3.7 </tspan>
<tspan x="10" y="2874">  │   │   │ │ ├── faye-websocket@0.4.4 </tspan>
<tspan x="10" y="2890">  │   │   │ │ └── node-uuid@1.3.3 </tspan>
<tspan x="10" y="2906">  │   │   │ └── sockjs-client@0.0.0-unreleasable </tspan>
<tspan x="10" y="2922">  │   │   ├── traverse@0.6.6 </tspan>
<tspan x="10" y="2938">  │   │   └── win-spawn@2.0.0 </tspan>
<tspan x="10" y="2954">  │   ├── normalizeurl@0.1.3 </tspan>
<tspan x="10" y="2970">  │   └─┬ wrap-fn@0.1.5 </tspan>
<tspan x="10" y="2986">  │     └── co@3.1.0 </tspan>
<tspan x="10" y="3002">  └─┬ request@2.81.0 </tspan>
<tspan x="10" y="3018">    ├── aws-sign2@0.6.0 </tspan>
<tspan x="10" y="3034">    ├── aws4@1.6.0 </tspan>
<tspan x="10" y="3050">    ├── caseless@0.12.0 </tspan>
<tspan x="10" y="3066">    ├─┬ combined-stream@1.0.5 </tspan>
<tspan x="10" y="3082">    │ └── delayed-stream@1.0.0 </tspan>
<tspan x="10" y="3098">    ├── extend@3.0.0 </tspan>
<tspan x="10" y="3114">    ├── forever-agent@0.6.1 </tspan>
<tspan x="10" y="3130">    ├─┬ form-data@2.1.4 </tspan>
<tspan x="10" y="3146">    │ └── asynckit@0.4.0 </tspan>
<tspan x="10" y="3162">    ├─┬ har-validator@4.2.1 </tspan>
<tspan x="10" y="3178">    │ ├─┬ ajv@4.11.7 </tspan>
<tspan x="10" y="3194">    │ │ ├── co@4.6.0 </tspan>
<tspan x="10" y="3210">    │ │ └─┬ json-stable-stringify@1.0.1 </tspan>
<tspan x="10" y="3226">    │ │   └── jsonify@0.0.0 </tspan>
<tspan x="10" y="3242">    │ └── har-schema@1.0.5 </tspan>
<tspan x="10" y="3258">    ├─┬ hawk@3.1.3 </tspan>
<tspan x="10" y="3274">    │ ├── boom@2.10.1 </tspan>
<tspan x="10" y="3290">    │ ├── cryptiles@2.0.5 </tspan>
<tspan x="10" y="3306">    │ ├── hoek@2.16.3 </tspan>
<tspan x="10" y="3322">    │ └── sntp@1.0.9 </tspan>
<tspan x="10" y="3338">    ├─┬ http-signature@1.1.1 </tspan>
<tspan x="10" y="3354">    │ ├── assert-plus@0.2.0 </tspan>
<tspan x="10" y="3370">    │ ├─┬ jsprim@1.4.0 </tspan>
<tspan x="10" y="3386">    │ │ ├── assert-plus@1.0.0 </tspan>
<tspan x="10" y="3402">    │ │ ├── extsprintf@1.0.2 </tspan>
<tspan x="10" y="3418">    │ │ ├── json-schema@0.2.3 </tspan>
<tspan x="10" y="3434">    │ │ └── verror@1.3.6 </tspan>
<tspan x="10" y="3450">    │ └─┬ sshpk@1.13.0 </tspan>
<tspan x="10" y="3466">    │   ├── asn1@0.2.3 </tspan>
<tspan x="10" y="3482">    │   ├── assert-plus@1.0.0 </tspan>
<tspan x="10" y="3498">    │   ├── bcrypt-pbkdf@1.0.1 </tspan>
<tspan x="10" y="3514">    │   ├─┬ dashdash@1.14.1 </tspan>
<tspan x="10" y="3530">    │   │ └── assert-plus@1.0.0 </tspan>
<tspan x="10" y="3546">    │   ├── ecc-jsbn@0.1.1 </tspan>
<tspan x="10" y="3562">    │   ├─┬ getpass@0.1.6 </tspan>
<tspan x="10" y="3578">    │   │ └── assert-plus@1.0.0 </tspan>
<tspan x="10" y="3594">    │   ├── jodid25519@1.0.2 </tspan>
<tspan x="10" y="3610">    │   ├── jsbn@0.1.1 </tspan>
<tspan x="10" y="3626">    │   └── tweetnacl@0.14.5 </tspan>
<tspan x="10" y="3642">    ├── is-typedarray@1.0.0 </tspan>
<tspan x="10" y="3658">    ├── isstream@0.1.2 </tspan>
<tspan x="10" y="3674">    ├── json-stringify-safe@5.0.1 </tspan>
<tspan x="10" y="3690">    ├─┬ mime-types@2.1.15 </tspan>
<tspan x="10" y="3706">    │ └── mime-db@1.27.0 </tspan>
<tspan x="10" y="3722">    ├── oauth-sign@0.8.2 </tspan>
<tspan x="10" y="3738">    ├── performance-now@0.2.0 </tspan>
<tspan x="10" y="3754">    ├── safe-buffer@5.0.1 </tspan>
<tspan x="10" y="3770">    ├── stringstream@0.0.5 </tspan>
<tspan x="10" y="3786">    ├─┬ tough-cookie@2.3.2 </tspan>
<tspan x="10" y="3802">    │ └── punycode@1.4.1 </tspan>
<tspan x="10" y="3818">    ├── tunnel-agent@0.6.0 </tspan>
<tspan x="10" y="3834">    └── uuid@3.0.1</tspan>
</text>
</svg>
